<svg id="8d70b25a-11b1-423b-a70a-bdbe41590f85" data-name="Capa 1" xmlns="http://www.w3.org/2000/svg" viewBox="0 0 508 510.04">
  <title>ICONES_GIS_Mapes_02</title>
  <path d="M354.12,460.24A14.35,14.35,0,0,1,340.85,480H167.15a14.35,14.35,0,0,1-13.35-19.61L185,381.27H321.83Z" fill="#dedc00"/>
  <g>
    <path d="M293.41,149.39a4.52,4.52,0,0,1,.52,4.21L276.5,199.7V147.41h13.14A4.52,4.52,0,0,1,293.41,149.39Z" fill="#fff"/>
    <path d="M228.33,147.41v53.45l-19.39-47.13a4.58,4.58,0,0,1,4.24-6.32Z" fill="#fff"/>
    <path d="M251,38.66c12.43,12.57,14.71,54.41,14.54,69.53v28.22H239.33V73.25c0-7.83-2.18-13.42-6.48-16.6a12.79,12.79,0,0,0-4.93-2.24V35.52h16.3A9.17,9.17,0,0,1,251,38.66Z" fill="#fff"/>
    <rect x="239.33" y="147.41" width="26.17" height="59.01" fill="#fff"/>
    <path d="M359.22,458.16a19.85,19.85,0,0,1-18.37,27.36H167.15a19.85,19.85,0,0,1-18.47-27.13L223.8,267.9,221.43,213l-22.66-55.09a15.57,15.57,0,0,1,14.41-21.5h15.15V73.25c0-5.81-1.55-7.41-2-7.76a3.28,3.28,0,0,0-2.27-.37,5.5,5.5,0,0,1-7.11-5.26V30a5.51,5.51,0,0,1,5.5-5.5h21.8a20,20,0,0,1,14.57,6.41c7.84,7.93,13.19,23.5,15.9,46.28a268.2,268.2,0,0,1,1.81,31.05v28.15h13.14a15.58,15.58,0,0,1,14.58,21.07l-19.83,52.46L282,269.34Zm-11,12.44a8.71,8.71,0,0,0,.85-8.27l-30.9-75.56H188.75l-29.84,75.66a8.86,8.86,0,0,0,8.24,12.09h173.7A8.71,8.71,0,0,0,348.19,470.6Zm-34.55-94.83L272.22,274.49H234v-2.35L193.09,375.77ZM293.93,153.6a4.58,4.58,0,0,0-4.29-6.19H276.5V199.7Zm-22.7,109.89L273.09,217a5.38,5.38,0,0,1-2.09.42H233.83a5.34,5.34,0,0,1-1.21-.14l2,46.21Zm-5.73-155.3c.17-15.12-2.11-57-14.54-69.53a9.17,9.17,0,0,0-6.74-3.14h-16.3V54.41a12.79,12.79,0,0,1,4.93,2.24c4.3,3.18,6.48,8.77,6.48,16.6v63.16H265.5Zm0,98.23v-59H239.33v59Zm-37.17-5.56V147.41H213.18a4.58,4.58,0,0,0-4.24,6.32Z"/>
    <polygon points="272.22 274.49 313.64 375.77 193.09 375.77 233.96 272.14 233.96 274.49 272.22 274.49" fill="#fff"/>
    <path d="M273.09,217l-1.86,46.49H234.62l-2-46.21a5.34,5.34,0,0,0,1.21.14H271A5.38,5.38,0,0,0,273.09,217Z" fill="#fff"/>
  </g>
</svg>
