<svg id="e349c386-e9a3-4a0d-ac4d-06e65d951195" data-name="Capa 1" xmlns="http://www.w3.org/2000/svg" viewBox="0 0 508 510.04">
  <title>ICONES_GIS_Mapes_02</title>
  <path d="M195,80,99,240.92S75.74,273.1,75.74,324.44C75.74,369.28,121.26,430,195,430s120.79-64.36,120.79-112.81c0-29.65-15.44-64.82-21.95-75.67S195,80,195,80Z" fill="#36a9e1"/>
  <path d="M195,435.52c-34.8,0-67.19-13.36-91.22-37.61-21-21.21-33.57-48.68-33.57-73.47,0-50.9,21.93-83.33,24.18-86.53L190.32,77.2A5.5,5.5,0,0,1,195,74.52h0a5.5,5.5,0,0,1,4.69,2.63c.92,1.51,92.42,150.82,98.87,161.56,7.12,11.87,22.73,48.11,22.73,78.5,0,26.43-12.8,55.72-34.23,78.36C262.69,421.33,230,435.52,195,435.52Zm.06-344.87L103.76,243.74c-.08.14-.17.28-.27.41-.22.3-22.25,31.51-22.25,80.29,0,41.79,43.29,100.08,113.79,100.08,71.43,0,115.29-62.5,115.29-107.31,0-28.67-15.51-63.42-21.16-72.84S214.08,121.62,195.1,90.65ZM99,240.92h0Z"/>
  <g>
    <path d="M195.79,386.55a71.26,71.26,0,0,1-71.26-71.26" fill="#36a9e1"/>
    <path d="M195.79,392A76.85,76.85,0,0,1,119,315.28a5.5,5.5,0,0,1,11,0A65.84,65.84,0,0,0,195.79,381a5.5,5.5,0,1,1,0,11Z"/>
  </g>
  <path d="M377.28,107l-43.7,73.24s-10.6,14.65-10.6,38c0,20.41,20.72,48.06,54.3,48.06s55-29.3,55-51.35c0-13.5-7-29.51-10-34.44S377.28,107,377.28,107Z" fill="#36a9e1"/>
  <path d="M377.28,271.84a60.93,60.93,0,0,1-43.65-18c-10.11-10.21-16.15-23.5-16.15-35.55,0-23.54,10-38.88,11.48-41l43.59-73.07a5.5,5.5,0,0,1,4.69-2.68h0a5.5,5.5,0,0,1,4.69,2.63c1.72,2.8,42.08,68.66,45,73.56,3.51,5.86,10.77,22.68,10.77,37.27,0,12.78-6.13,26.88-16.4,37.73A60.23,60.23,0,0,1,377.28,271.84Zm.06-154.18-39,65.43q-.13.21-.27.41c-.08.12-9.56,13.66-9.56,34.79,0,17.77,18.57,42.56,48.8,42.56,30.66,0,49.48-26.7,49.48-45.85,0-12.42-6.75-27.52-9.21-31.61C415.23,179.51,388.43,135.75,377.34,117.65Zm-43.76,62.61h0Z"/>
</svg>
