<svg id="830c92d0-050c-4d32-971c-eb073c408a6a" data-name="Capa 1" xmlns="http://www.w3.org/2000/svg" viewBox="0 0 508 510.04">
  <title>ICONES_GIS_Mapes_02</title>
  <g>
    <ellipse cx="254" cy="284.05" rx="190.47" ry="53.38" fill="#7d4e24"/>
    <path d="M254,347C154.61,347,54,325.35,54,284s100.61-62.91,200-62.91S454,242.75,454,284,353.39,347,254,347Zm0-106.76c-50,0-97,5.43-132.12,15.28C88.15,264.93,73.05,276.64,73.05,284s15.1,19.12,48.83,28.57C157,322.48,204,327.9,254,327.9s97-5.43,132.11-15.28c33.73-9.45,48.83-21.16,48.83-28.57s-15.1-19.12-48.83-28.57C351,245.62,304,240.19,254,240.19Z"/>
    <ellipse cx="254" cy="225.99" rx="190.47" ry="53.38" fill="#cbbba0"/>
    <path d="M254,288.9c-99.39,0-200-21.61-200-62.91s100.61-62.91,200-62.91S454,184.69,454,226,353.39,288.9,254,288.9Zm0-106.76c-50,0-97,5.43-132.11,15.28C88.15,206.87,73.05,218.58,73.05,226s15.1,19.12,48.83,28.57C157,264.42,204,269.85,254,269.85s97-5.43,132.11-15.28c33.73-9.45,48.83-21.16,48.83-28.57s-15.1-19.12-48.83-28.57C351,187.56,304,182.13,254,182.13Z"/>
    <path d="M97.59,289l8.53,6.52C108,297,111,295.83,112,294c1.3-2.23.31-4.5-1.55-5.92L102,281.54c-1.86-1.42-4.85-.29-5.92,1.55-1.3,2.23-.31,4.5,1.55,5.92Z"/>
    <path d="M127.52,292.52l5.66-5.88a4.33,4.33,0,1,0-6.12-6.12l-5.66,5.88a4.33,4.33,0,0,0,6.12,6.12Z"/>
    <path d="M147,294.78l9.26-2.82c5.32-1.62,3.05-10-2.3-8.35l-9.26,2.82c-5.32,1.62-3.05,10,2.3,8.35Z"/>
    <path d="M159.86,304.11l8.69,5.15c4.81,2.85,9.17-4.64,4.37-7.48l-8.69-5.15c-4.81-2.85-9.17,4.64-4.37,7.48Z"/>
    <path d="M179.34,298.57a74.5,74.5,0,0,0,15.54-3.26c5.27-1.74,3-10.1-2.3-8.35a63.93,63.93,0,0,1-13.24,3c-2.33.25-4.33,1.81-4.33,4.33,0,2.15,2,4.58,4.33,4.33Z"/>
    <path d="M145.86,303.72a18.15,18.15,0,0,0-9.26-1.22c-2.32.31-4.33,1.77-4.33,4.33,0,2.1,2,4.64,4.33,4.33a12.39,12.39,0,0,1,7,.92c2.16.9,4.76-1,5.33-3,.68-2.49-.86-4.43-3-5.33Z"/>
    <path d="M184.54,309.73l9.8,1.79a4.45,4.45,0,0,0,5.33-3c.58-2.1-.71-4.9-3-5.33l-9.8-1.79a4.45,4.45,0,0,0-5.33,3c-.58,2.1.71,4.9,3,5.33Z"/>
    <path d="M218,317.43l5.19.65c2.26.28,4.43-2.19,4.33-4.33-.12-2.59-1.91-4-4.33-4.33l-5.19-.65c-2.26-.28-4.43,2.19-4.33,4.33.12,2.59,1.91,4,4.33,4.33Z"/>
    <path d="M219.76,303.63l11.54-1.76c2.31-.35,3.59-3.26,3-5.33-.68-2.47-3-3.38-5.33-3l-11.54,1.76c-2.31.35-3.59,3.26-3,5.33.68,2.47,3,3.38,5.33,3Z"/>
    <path d="M248.21,307.56l9,6.07a4.33,4.33,0,1,0,4.37-7.48l-9-6.07a4.33,4.33,0,1,0-4.37,7.48Z"/>
    <path d="M256.56,286a52.1,52.1,0,0,1,2.12,10.4,4.45,4.45,0,0,0,4.33,4.33c2.17,0,4.55-2,4.33-4.33a63.39,63.39,0,0,0-2.43-12.7c-1.62-5.31-10-3-8.35,2.3Z"/>
    <path d="M276.13,308.54l1.72,7.51a4.33,4.33,0,0,0,8.35-2.3l-1.72-7.51a4.33,4.33,0,1,0-8.35,2.3Z"/>
    <path d="M298,303.9l-1.47,10.43c-.33,2.31.56,4.65,3,5.33,2,.56,5-.69,5.33-3l1.47-10.43c.33-2.31-.56-4.65-3-5.33-2-.56-5,.69-5.33,3Z"/>
    <path d="M282,287.27a63.22,63.22,0,0,1,8.48,9.6,4.45,4.45,0,0,0,5.92,1.55c1.88-1.1,2.91-4,1.55-5.92a74.09,74.09,0,0,0-9.83-11.35c-4.07-3.8-10.21,2.31-6.12,6.12Z"/>
    <path d="M315,308.22l17.31,1.28c5.56.41,5.53-8.25,0-8.66L315,299.56c-5.56-.41-5.53,8.25,0,8.66Z"/>
    <path d="M317.73,321.23l1.74,9.24c.43,2.3,3.21,3.61,5.33,3a4.42,4.42,0,0,0,3-5.33l-1.74-9.24c-.43-2.3-3.21-3.61-5.33-3a4.42,4.42,0,0,0-3,5.33Z"/>
    <path d="M332.4,292.93a27.05,27.05,0,0,1,2.51-7,4.42,4.42,0,0,0-1.55-5.92,4.38,4.38,0,0,0-5.92,1.55,35.58,35.58,0,0,0-3.38,9.1,4.43,4.43,0,0,0,3,5.33,4.38,4.38,0,0,0,5.33-3Z"/>
    <path d="M344,308.22l6.93,4.61a4.36,4.36,0,0,0,5.92-1.55,4.43,4.43,0,0,0-1.55-5.92l-6.93-4.61a4.36,4.36,0,0,0-5.92,1.55,4.43,4.43,0,0,0,1.55,5.92Z"/>
    <path d="M379.27,295.83a28.06,28.06,0,0,1,3.1-11.6c2.55-4.95-4.92-9.33-7.48-4.37a38.45,38.45,0,0,0-4.28,16c-.27,5.57,8.39,5.56,8.66,0Z"/>
    <path d="M367.58,286.62l-2.7-10.44c-1.39-5.39-9.75-3.11-8.35,2.3l2.7,10.44c1.39,5.39,9.75,3.11,8.35-2.3Z"/>
    <path d="M400,300.71l9.81,5.2c4.92,2.61,9.3-4.86,4.37-7.48l-9.81-5.2c-4.92-2.61-9.3,4.86-4.37,7.48Z"/>
    <path d="M383.12,311c3.22,0,3.22-5,0-5s-3.22,5,0,5Z"/>
    <path d="M406.61,280.82,406,264.65c-.2-5.56-8.86-5.58-8.66,0l.58,16.16c.2,5.56,8.86,5.58,8.66,0Z"/>
    <path d="M417.77,287.53a58.4,58.4,0,0,0,15-3.15c5.21-1.86,3-10.24-2.3-8.35a49.67,49.67,0,0,1-12.68,2.84c-5.51.46-5.56,9.12,0,8.66Z"/>
    <path d="M237.33,321.24a23.07,23.07,0,0,1-.38,6.94,4.43,4.43,0,0,0,3,5.33,4.38,4.38,0,0,0,5.33-3,31,31,0,0,0,.69-9.24,4.44,4.44,0,0,0-4.33-4.33c-2.19,0-4.53,2-4.33,4.33Z"/>
    <path d="M214.66,327.59l-2.38-6.9c-.74-2.14-3-3.78-5.33-3-2.12.69-3.81,3-3,5.33l2.38,6.9c.74,2.14,3,3.78,5.33,3,2.12-.69,3.81-3,3-5.33Z"/>
    <path d="M169.6,328.82a26.59,26.59,0,0,1,12-5.7c5.45-1.13,3.15-9.48-2.3-8.35a35.53,35.53,0,0,0-15.86,7.93c-4.25,3.61,1.9,9.71,6.12,6.12Z"/>
    <path d="M108.54,267.55l.71,10.38a4.43,4.43,0,0,0,4.33,4.33,4.37,4.37,0,0,0,4.33-4.33l-.71-10.38a4.43,4.43,0,0,0-4.33-4.33,4.37,4.37,0,0,0-4.33,4.33Z"/>
    <path d="M106.47,314a36.43,36.43,0,0,0,8.94-6.49c4-3.91-2.14-10-6.12-6.12a28.66,28.66,0,0,1-7.18,5.13,4.33,4.33,0,1,0,4.37,7.48Z"/>
    <path d="M67.32,284.58H76c5.57,0,5.58-8.66,0-8.66H67.32c-5.57,0-5.58,8.66,0,8.66Z"/>
    <path d="M81.8,258.25A96.72,96.72,0,0,0,90,277.87c2.71,4.87,10.19.51,7.48-4.37A86,86,0,0,1,90.15,256c-1.58-5.33-9.94-3.06-8.35,2.3Z"/>
    <path d="M414.24,261.82a11.58,11.58,0,0,1,3.6,8c.19,5.56,8.85,5.58,8.66,0a20.62,20.62,0,0,0-6.14-14.16c-4-3.91-10.1,2.2-6.12,6.12Z"/>
  </g>
</svg>
