<svg id="96b838f1-e93e-4cfd-9f97-ef19f8a03649" data-name="Capa 1" xmlns="http://www.w3.org/2000/svg" viewBox="0 0 508 510.04">
  <title>ICONES_GIS_Mapes_02</title>
  <g id="58ab0bad-dee1-432a-ae57-19af3869ebe4" data-name="&lt;Grupo&gt;">
    <path d="M277.59,360.94c5.25-5.25,17-2,26.28,7.26s12.52,21,7.27,26.29-17,2-26.28-7.28S272.35,366.18,277.59,360.94Z" fill="#cbbba0"/>
    <path d="M372.53,292.06c4.43-12.33,13.67-20.3,20.66-17.8s9.06,14.53,4.64,26.86-13.67,20.3-20.66,17.8S368.1,304.38,372.53,292.06Z" fill="#cbbba0"/>
    <path d="M347.7,350.52c-12.65,3.39-24.46.32-26.39-6.84s6.79-15.74,19.44-19.13,24.46-.32,26.39,6.84S360.36,347.13,347.7,350.52Z" fill="#cbbba0"/>
    <path d="M348.89,450.05c25,20.88,68.23,15.69,93.27-10.4,22.81-23.77,26.42-67.84,6.82-89.43C426.66,394.3,393.35,427.32,348.89,450.05Zm-33.68,12.82c-81.82,22.66-153.59,3.64-216.47-53.92C39.9,344,21.5,269.63,48.61,184.93c1.38-4.31,1.21-7.23-1.54-11.15C19.23,134.3,24.15,83.88,58.51,53.3,91,24.37,136.68,22.15,172.67,48.07c3.86,2.79,6.81,3.11,11.13,1.61,83.44-28.74,175.55-5.91,232.88,60.83C469.76,172.3,483,243.92,460,322c-1.93,6.54-1.47,11.05,2.48,16.71,24.93,35.75,21.1,82.41-8.87,113.89a88.58,88.58,0,0,1-111.7,13.48C332.51,460.06,325.38,460.06,315.21,462.87Zm59.2-87.5c66.93-67.08,67-175.54.11-242.36s-175.64-66.7-242.46.14-66.78,176,0,242.44C199.29,442.41,307.62,442.33,374.41,375.37ZM58,159.44c22.38-45.12,56.59-77.52,100.55-100.5C131.24,39,90.81,43.5,66.1,68.41,42.64,92,38.54,133.21,58,159.44Z"/>
    <path d="M347.21,310c-5.24,5.24-17,2-26.27-7.27s-12.51-21-7.27-26.27,17-2,26.28,7.26S352.46,304.7,347.21,310Z" fill="#cbbba0"/>
    <path d="M376.47,265c-1.93,7.18-13.74,10.23-26.4,6.85s-21.34-12-19.43-19.12,13.74-10.23,26.39-6.84S378.38,257.85,376.47,265Z" fill="#cbbba0"/>
    <path d="M253.46,384.37c-4.42,12.32-13.66,20.29-20.65,17.79s-9.06-14.53-4.65-26.87,13.68-20.29,20.66-17.77S257.89,372,253.46,384.37Z" fill="#cbbba0"/>
    <path d="M300.2,301.8c9.27,9.27,12.52,21,7.28,26.28s-17,2-26.29-7.27-12.51-21-7.26-26.28S290.94,292.54,300.2,301.8Z" fill="#cbbba0"/>
    <path d="M384.49,251.07c-9.26-9.26-12.52-21-7.27-26.29s17-2,26.28,7.28,12.51,21,7.27,26.27S393.75,260.33,384.49,251.07Z" fill="#cbbba0"/>
    <path d="M406.45,188.83c1.93,7.16-6.77,15.73-19.43,19.12s-24.47.33-26.39-6.84,6.77-15.73,19.43-19.12S404.54,181.66,406.45,188.83Z" fill="#cbbba0"/>
    <path d="M182.61,357c12.65,3.39,21.34,12,19.43,19.12s-13.74,10.23-26.39,6.84S154.3,371,156.23,363.82,170,353.59,182.61,357Z" fill="#cbbba0"/>
    <path d="M303.19,251.9c-4.42,12.32-13.68,20.29-20.65,17.79s-9.07-14.52-4.65-26.87,13.67-20.28,20.65-17.79S307.61,239.58,303.19,251.9Z" fill="#cbbba0"/>
    <path d="M198.79,326.47c-1.93-7.18,6.79-15.74,19.43-19.12s24.47-.33,26.39,6.84-6.77,15.73-19.43,19.12S200.71,333.63,198.79,326.47Z" fill="#cbbba0"/>
    <path d="M323.6,190c12-5.22,24.14-3.94,27.11,2.86s-4.38,16.57-16.38,21.79-24.17,3.94-27.12-2.87S311.59,195.26,323.6,190Z" fill="#cbbba0"/>
    <path d="M346.79,147.14c9.26,9.26,12.52,21,7.27,26.27s-17,2-26.27-7.27-12.53-21-7.28-26.28S337.52,137.87,346.79,147.14Z" fill="#cbbba0"/>
    <path d="M173,312c9.26,9.26,12.51,21,7.26,26.28s-17,2-26.27-7.27-12.51-21-7.27-26.27S163.72,302.74,173,312Z" fill="#cbbba0"/>
    <path d="M221.81,253.13c5.24-5.24,17-2,26.28,7.28s12.51,21,7.27,26.27-17,2-26.27-7.27S216.55,258.38,221.81,253.13Z" fill="#cbbba0"/>
    <path d="M253.36,200.25c-1.92-7.17,6.77-15.73,19.43-19.12s24.47-.33,26.4,6.85-6.77,15.73-19.44,19.11S255.29,207.43,253.36,200.25Z" fill="#cbbba0"/>
    <path d="M185.3,265c12.65-3.39,24.47-.33,26.39,6.84s-6.77,15.73-19.43,19.12-24.47.33-26.4-6.85S172.63,268.37,185.3,265Z" fill="#cbbba0"/>
    <path d="M313.28,130.74c-4.43,12.33-13.67,20.3-20.66,17.8S283.56,134,288,121.68s13.67-20.3,20.66-17.8S317.7,118.42,313.28,130.74Z" fill="#cbbba0"/>
    <path d="M347.7,350.52c12.65-3.39,21.36-12,19.44-19.13s-13.74-10.23-26.39-6.84-21.35,12-19.44,19.13S335.05,353.92,347.7,350.52Zm2.36-78.65c12.66,3.38,24.47.33,26.4-6.85S369.69,249.3,357,245.91s-24.46-.34-26.39,6.84S337.42,268.48,350.07,271.87Zm-29.12,30.81c9.26,9.26,21,12.51,26.27,7.27s2-17-7.26-26.28-21-12.51-26.28-7.26S311.68,293.42,320.94,302.68Zm-72.13,54.83c-7-2.52-16.24,5.45-20.66,17.77s-2.34,24.36,4.65,26.87,16.23-5.46,20.65-17.79S255.8,360,248.82,357.52Zm33.72-87.83c7,2.51,16.23-5.46,20.65-17.79s2.34-24.36-4.65-26.87-16.23,5.46-20.65,17.79S275.55,267.18,282.54,269.69ZM202,376.1c1.92-7.17-6.77-15.73-19.43-19.12s-24.47-.33-26.39,6.84,6.77,15.73,19.43,19.12S200.13,383.27,202,376.1ZM377.22,224.78c-5.25,5.25-2,17,7.27,26.29s21,12.51,26.28,7.26,2-17-7.27-26.27S382.46,219.54,377.22,224.78ZM303.87,368.2c-9.26-9.26-21-12.51-26.28-7.26s-2,17,7.27,26.27,21,12.52,26.28,7.28S313.14,377.47,303.87,368.2ZM198.79,326.47c1.92,7.17,13.74,10.23,26.39,6.84s21.36-12,19.43-19.12-13.74-10.23-26.39-6.84S196.86,319.29,198.79,326.47Zm194.4-52.21c-7-2.51-16.23,5.46-20.66,17.8s-2.34,24.36,4.64,26.86,16.24-5.45,20.66-17.8S400.17,276.78,393.19,274.26ZM248.08,260.4c-9.27-9.27-21-12.52-26.28-7.28s-2,17,7.28,26.28,21,12.52,26.27,7.27S257.34,269.66,248.08,260.4ZM374.52,133c66.86,66.82,66.82,175.28-.11,242.36s-175.11,67-242.34.22c-66.8-66.42-66.81-175.64,0-242.44S307.72,66.26,374.52,133Zm-23.8,59.88c-3-6.8-15.1-8.08-27.11-2.86s-19.36,15-16.4,21.78,15.1,8.1,27.12,2.87S353.67,199.69,350.71,192.89Zm-77.93-11.75c-12.65,3.39-21.34,12-19.43,19.12s13.74,10.23,26.39,6.84S301.1,195.15,299.19,188,285.45,177.75,272.79,181.13Zm-106.93,103c1.93,7.18,13.74,10.23,26.4,6.85s21.34-12,19.43-19.12S197.95,261.6,185.3,265,163.94,276.93,165.86,284.1Zm21.08-58.18c7,2.52,16.23-5.46,20.65-17.79s2.34-24.36-4.64-26.86-16.24,5.45-20.65,17.79S179.94,223.41,186.94,225.92Zm65.69,15.39c5.24-5.24,2-17-7.28-26.28s-21-12.51-26.27-7.27-2,17,7.26,26.28S247.37,246.56,252.63,241.31Zm101.44-67.9c5.25-5.25,2-17-7.27-26.27s-21-12.53-26.28-7.28-2,17,7.28,26.28S348.81,178.66,354.06,173.4ZM180.24,338.28c5.25-5.25,2-17-7.26-26.28s-21-12.51-26.28-7.26-2,17,7.27,26.27S175,343.52,180.24,338.28ZM292.62,148.54c7,2.51,16.23-5.46,20.66-17.8s2.34-24.36-4.64-26.86-16.24,5.45-20.66,17.8S285.64,146,292.62,148.54ZM109.27,297.65c7,2.51,16.25-5.46,20.66-17.8s2.35-24.35-4.64-26.86-16.24,5.45-20.65,17.79S102.29,295.13,109.27,297.65Zm55-50c5.25-5.25,2-17-7.27-26.29s-21-12.51-26.28-7.26-2,17,7.27,26.27S159.05,252.89,164.29,247.64Zm62-74.64c7.18-1.93,10.23-13.74,6.84-26.39S221.18,125.26,214,127.17s-10.23,13.74-6.85,26.4S219.11,174.92,226.28,173Zm41.15-32.18c5.24-5.24,2-17-7.28-26.28s-21-12.51-26.27-7.27-2,17,7.26,26.28S262.18,146.08,267.44,140.82ZM184,177.29c5.24-5.24,2-17-7.27-26.27s-21-12.52-26.28-7.28-2,17,7.27,26.29S178.74,182.54,184,177.29Zm203,30.66c12.65-3.39,21.35-12,19.43-19.12s-13.74-10.23-26.39-6.84-21.35,11.94-19.43,19.12S374.38,211.34,387,207.95ZM307.48,328.07c5.24-5.24,2-17-7.28-26.28s-21-12.51-26.27-7.27-2,17,7.26,26.28S302.23,333.33,307.48,328.07Z" fill="#fff"/>
    <path d="M226.34,234c-9.26-9.26-12.51-21-7.26-26.28s17-2,26.27,7.27,12.52,21,7.28,26.28S235.61,243.31,226.34,234Z" fill="#cbbba0"/>
    <path d="M202.95,181.27c7,2.5,9.06,14.53,4.64,26.86s-13.67,20.3-20.65,17.79-9.07-14.52-4.64-26.86S196,178.76,202.95,181.27Z" fill="#cbbba0"/>
    <path d="M129.94,279.85c-4.41,12.33-13.67,20.3-20.66,17.8s-9.06-14.53-4.63-26.87S118.3,250.49,125.3,253,134.36,267.53,129.94,279.85Z" fill="#cbbba0"/>
    <path d="M157,221.35c9.27,9.27,12.52,21,7.27,26.29s-17,2-26.28-7.28-12.51-21-7.27-26.27S147.77,212.09,157,221.35Z" fill="#cbbba0"/>
    <path d="M233.12,146.61c3.39,12.65.34,24.46-6.84,26.39s-15.73-6.77-19.12-19.43-.33-24.47,6.85-26.4S229.74,133.95,233.12,146.61Z" fill="#cbbba0"/>
    <path d="M260.16,114.54c9.27,9.27,12.52,21,7.28,26.28s-17,2-26.29-7.27-12.51-21-7.26-26.28S250.9,105.29,260.16,114.54Z" fill="#cbbba0"/>
    <path d="M176.73,151c9.26,9.26,12.51,21,7.27,26.27s-17,2-26.28-7.26-12.52-21-7.27-26.29S167.47,141.76,176.73,151Z" fill="#cbbba0"/>
  </g>
</svg>
