<svg id="05191551-6e0b-43a7-93c8-d4d710f2394e" data-name="Capa 1" xmlns="http://www.w3.org/2000/svg" viewBox="0 0 508 510.04">
  <title>ICONES_GIS_Mapes_02</title>
  <g id="7ac283df-ccd5-4ec5-9c19-e792d51c6e90" data-name="&lt;Grupo&gt;">
    <path d="M182.29,372.17l-37.63,33.59c-18.85-21.15-37.5-42-56.48-63.29l37.63-33.59Z" fill="#fff"/>
    <path d="M477.66,85.54l-25.07,22.37L418.86,70.13c8.41-7.5,16.62-14.81,25.07-22.37C455.18,60.34,466.26,72.78,477.66,85.54Z" fill="#fff"/>
    <path d="M337.6,210.86c1.9,2.07,2.57,3.61.8,6.49-9.17,14.9-18,30-27.35,45.75-15.84-5.29-32.28-10.73-48.65-16.33a5.17,5.17,0,0,1-2.88-3.06c-3.77-17.09-7.38-34.2-11-51.22,13.45-5.67,26.63-10.89,39.53-16.71s12.71-6,22.24,4.57C319.39,190.54,328.45,200.74,337.6,210.86Z" fill="#fff"/>
    <path d="M490.56,73.68c6.65,7.54,6.69,17.2-.51,24.16a353.2,353.2,0,0,1-26.7,23.67c-3.35,2.61-8.59,2.79-13,4.08-2.1.62-4.75.62-6.22,1.94-32.66,29.67-65.09,59.76-89.32,96.95-13.87,21.3-25.14,44.35-37,66.88a310.31,310.31,0,0,1-60.92,81c-35.78,34-72.61,66.85-109.22,99.94-12.51,11.31-26.86,10.13-38.12-2.45q-44.7-49.92-89.25-100c-11-12.34-10.42-26.63,1.81-37.77,18.47-16.8,37.23-33.3,55.86-49.92,0-.58,48.81-41.49,74.15-60.85,27.19-20.79,58-34.91,90.39-45.6C284,162,320.71,139.9,354.62,112.85c14.5-11.56,28.66-23.51,42.74-35.54,1.92-1.63,2.52-4.77,3.73-7.21,2.3-4.57,3.66-10,7-13.54,7.27-7.58,15.44-14.32,23.42-21.19,9-7.7,18.43-7,26.28,1.63Q474.27,55.27,490.56,73.68Zm-38,34.24,25.07-22.37c-11.4-12.76-22.49-25.21-33.73-37.79-8.45,7.56-16.66,14.88-25.07,22.37ZM433,112.36C426.2,104.79,419,96.7,412.1,89l-95,72.9,32.72,36.67C377.57,169.8,405.16,141.18,433,112.36Zm-94.56,105c1.76-2.88,1.09-4.42-.8-6.49-9.15-10.13-18.2-20.32-27.3-30.49-9.53-10.62-9.39-10.37-22.24-4.57s-26.08,11-39.53,16.71c3.61,17,7.23,34.13,11,51.22a5.17,5.17,0,0,0,2.88,3.06c16.37,5.6,32.81,11,48.65,16.33C320.42,247.36,329.23,232.26,338.4,217.35ZM278.86,319.92c8.88-12.43,16.64-25.65,25.23-39-19.36-6.65-37.36-13-55.48-18.94-3.73-1.23-5.13-3.08-5.89-6.76-3.9-18.65-8.12-37.25-12.31-56.24-2.5.91-4.68,1.67-6.85,2.52-32.72,12.67-61.79,31.56-88.34,54C101.14,284.41,68,314.32,34.47,343.84c-6.13,5.4-6.2,9.06-.62,15.32q44,49.35,88,98.64c5.69,6.38,9.26,6.51,15.75.71,24.16-21.53,48.43-43,72.41-64.71C235.07,371.14,259.14,347.49,278.86,319.92Z"/>
    <path d="M412.1,89C419,96.7,426.2,104.79,433,112.36c-27.79,28.82-55.39,57.44-83.14,86.19L317.1,161.88Z" fill="#009640"/>
    <path d="M304.09,280.93c-8.59,13.34-16.35,26.57-25.23,39-19.72,27.57-43.79,51.22-68.82,73.88-24,21.75-48.25,43.19-72.41,64.71-6.49,5.8-10.06,5.67-15.75-.71q-44.07-49.29-88-98.64c-5.58-6.27-5.51-9.93.62-15.32,33.51-29.51,66.68-59.43,100.76-88.27,26.55-22.49,55.61-41.38,88.34-54,2.16-.85,4.35-1.61,6.85-2.52,4.19,19,8.41,37.59,12.31,56.24.76,3.68,2.16,5.53,5.89,6.76C266.73,267.95,284.73,274.28,304.09,280.93Zm-99.71,37.68c8.74-8,9.1-15.39,1.12-24.29-7.81-8.74-15.53-9.1-24.27-1.18s-9.1,15.19-1,24.2C188.14,326.19,195.61,326.59,204.38,318.61Zm-61.1,111.31c21.12-18.87,42-37.52,63.31-56.5q-39.52-44.23-79.32-88.85C106.21,303.37,85.19,322.11,64,341,90.48,370.76,116.78,400.21,143.28,429.92Z" fill="#009640"/>
    <path d="M205.49,294.31c8,8.9,7.63,16.33-1.12,24.29s-16.24,7.58-24.18-1.27c-8.08-9-7.76-16.19,1-24.2S197.69,285.57,205.49,294.31Z"/>
    <path d="M206.59,373.41c-21.26,19-42.18,37.63-63.31,56.5C116.78,400.21,90.48,370.76,64,341c21.21-18.94,42.23-37.68,63.29-56.48Q167.15,329.24,206.59,373.41Zm-61.92,32.35,37.63-33.59-56.48-63.29L88.18,342.48C107.16,363.73,125.81,384.61,144.66,405.76Z"/>
  </g>
</svg>
