<svg id="6afac589-6dde-433c-9407-ea67d621681b" data-name="Capa 1" xmlns="http://www.w3.org/2000/svg" viewBox="0 0 508 510.04">
  <title>ICONES_GIS_Mapes_02</title>
  <g>
    <path d="M88.2,163.05c18.58-12,74.33-18,125.35-13.54s133.54,16.69,168.5,31.18S424,195.49,424,195.49s14.17-9.76,19.53-8.82,6.93,2.83,6.93,2.83-8.19,19.21-11,23.94a11.64,11.64,0,0,0-1.57,8.82s.63,9.45,9.45,20.47S474,262,474,262s-.94,11.65-5,13.54-19.84,5.67-30.24,6.93-31.81,2.52-39.69,1.89-30.55,1.26-37.8,2.2A31,31,0,0,0,349.94,290s-10.08,21.73-9.76,34.65,12.91,37.17,12.91,37.17l-8.5,2.83-20.16,2.2-25.83-75s-73.07,12.6-104.57,8.19-59.53-9.76-59.53-9.76-13.86,23-17.32,29.92-1.26,19.53,1.57,29.61,8.5,15.43,4.72,15.12-14.17.31-14.17.31L96.39,364s-15.75-47.24-15.12-53.23,4.41-28,3.46-30.24-14.8-11.65-17-19.84S57,229.82,63.64,209,88.2,163.05,88.2,163.05Z" fill="#ed688f"/>
    <g>
      <path d="M66.13,183.3c-3.75-2.79-6.19-1.7-9,.89-6.92,6.44-15,7.79-23.89,4.44-3.41-1.29-5.12-3.73-3.86-7.24s4.1-3.65,7.28-2.81c6.79,1.81,8.22,1.56,13.26-2.19-4.34-4.06-9.68-7.94-8.58-14.68A26.56,26.56,0,0,1,46,150.57c4.09-5.52,11.26-6,17.62-2.09,8.38,5.17,9.21,9.95,3.4,24.67,2.7-.89,5.18-.92,6-2.1,13.51-19.48,33.4-26.68,55.71-28.81,31.75-3,63.5-1,95.25.42,64.86,3,126.2,21.82,187.4,41.29,4.22,1.34,8.25,3.29,12.47,4.66a6.6,6.6,0,0,0,4-.58c6.68-2.62,13.19-5.74,20-7.95,6.26-2,10,1.16,8.07,7.32-2.86,9.26-7,18.12-10.37,27.23-.88,2.37-1.73,5.17-1.31,7.54,1.33,7.6,4.39,14.22,11.47,18.56s13.91,9.23,20.68,14.12c1.33,1,2.8,3.13,2.62,4.54-.69,5.55-1.2,11.39-3.41,16.4-1.34,3-5.37,6.15-8.7,6.86-12.7,2.72-25.55,5.52-38.46,6.3-13.62.81-27.37-.67-41.06-1.12a25.58,25.58,0,0,0-4.55.26c-9.15,1.36-18.31,2.64-27.42,4.28-1.55.28-3.72,1.88-4.07,3.26-2.42,9.64-4.71,19.34-6.5,29.11-2.17,11.8,2.7,21.47,10.27,30.07,1.13,1.29,2.79,2.29,3.47,3.76.92,2,2,4.62,1.37,6.4-.51,1.47-3.34,2.8-5.25,3-4.77.41-9.61.06-14.42.14-3.68.06-6.71-.86-6.83-5.13s2.79-5.46,6.54-5.36c.81,0,1.63-.13,2.95-.24-1.93-3.61-3.87-6.79-5.37-10.17a40.36,40.36,0,0,1-3.31-23.59c3.47-20.76,8.45-41,19.39-59.31,1.83-3.07,3.83-5.72,7.69-3.83,4,2,3.57,5.3,1.73,8.76-2,3.77-3.87,7.6-6.32,12.44l12.2-1.32c-.61-1.11-1.38-1.87-1.38-2.63,0-2.2-.37-5,.8-6.4,1-1.2,4.5-1.79,5.91-1,24,14.06,48.94,9.49,74,4.46A107.4,107.4,0,0,1,462,273.14c3.9-.27,4.94-2.56,5.84-5.88s-.42-4.35-2.76-6.07c-8-5.91-16.37-11.56-23.32-18.58-4.08-4.12-5.73-10.64-8.56-16.25-1.2.47-3,1.85-4.68,1.65-2.36-.28-5.4-1.09-6.67-2.78-2-2.59-.36-5.52,2.57-6.62,11.73-4.42,15.57-14.68,19.83-26.62-11.14,4.39-19.9,9.6-24.63,19.88-1.74,3.77-2.68,8.4-8.45,6.5-3.68-1.21-4.09-5.11-1.08-11.16,1.73-3.47,4-6.69,6.29-10.52-11.07-3.54-21.95-7.14-32.9-10.5-38.89-11.95-78.06-22.89-118.37-28.88a398.43,398.43,0,0,0-47.67-4.24c-28.31-.77-56.65-.69-85-.41-6.93.07-13.94,1.85-20.73,3.6-15.7,4-27,13.72-34.29,28.17-10.26,20.43-13,41.84-7.68,64.06,2.53,10.63,7.25,19.91,18.13,24.87,1.76.8,3,4.79,2.9,7.23-.33,6.84-1.74,13.62-2.24,20.46a45.25,45.25,0,0,0,.73,11.71c2.17,11.24,4.64,22.43,7.1,33.62,1.07,4.85,2.34,9.66,3.6,14.47.84,3.22.4,6-3,7.16s-6.24-.31-7-4c-2.11-10.06-4-20.16-6-30.24-.6-3-.82-6.22-2-9-5.1-11.7-5-23.72-2.72-35.89.9-4.89.28-8.1-4.33-11.56-10.78-8.1-14.56-20.44-16.78-33.18C54.5,223.09,57.5,202.8,66.13,183.3Zm-9-15.66c1.29-3.36,5.75-5.87,1.45-9.73-2.06-1.84-4.22-1.93-5.79,1C50.28,163.66,53.33,165.55,57.16,167.64Z"/>
      <path d="M115.62,357.61c-2.16-7.27-4.46-14-6.15-21a28.87,28.87,0,0,1,4.07-23.72c9.91-14.41,20.42-28.4,30.77-42.5,2.35-3.19,5.5-5.29,9.08-1.9,3.34,3.16,1.39,6.16-1.15,8.92-2.19,2.38-4.23,4.91-7,8.13,48.6,12.7,96.52,9.1,143.95,2.09,0-8.32-.16-16,0-23.66.19-7,2.29-10,6.17-9.27,5.81,1.12,4.71,5.57,4.41,9.78a72.55,72.55,0,0,0,8.3,39.63c6,11.59,9.23,24.63,13.53,37.09,2.23,6.47,4,13.09,6.22,19.57,1.12,3.3,1.37,6.37-2.12,8-3.68,1.68-6.51-.2-7.65-3.81-3.3-10.45-5.88-21.16-9.65-31.42-4.19-11.38-9.28-22.43-14.31-33.48-.51-1.12-3.29-1.88-4.92-1.73-20.67,1.9-41.28,4.72-62,5.88-28.94,1.62-57.65-.65-85.69-8.77a5.71,5.71,0,0,0-4.94,1.75c-4.89,6.83-9.59,13.83-14,21-4.62,7.47-3.94,15.53-1.19,23.37,2.09,6,4.89,11.7,7.4,17.53s.51,8.93-5.75,9c-4,.07-7.9,0-11.85,0s-6.62-1.35-6.56-5.45c.05-3.85,2.81-5.17,6.38-5C112.55,357.65,114.05,357.61,115.62,357.61Z"/>
      <path d="M428,245.63c-5.51-.38-7.87-2.34-7.83-6.2,0-3.58,2.27-5.74,5.83-5.84,3.89-.1,6.51,2.38,6,6C431.7,242,429.1,244.08,428,245.63Z"/>
    </g>
  </g>
</svg>
