<svg id="7d8e5d3b-fc2c-4164-959a-4889ee197344" data-name="Capa 1" xmlns="http://www.w3.org/2000/svg" viewBox="0 0 508 510.04">
  <title>ICONES_GIS_Mapes_02</title>
  <path d="M471.76,206.59c5.52-2.43,10.36.6,10.3,6.7-.2,20.82-4.78,40.45-16.27,58.12-.3.47-.63.93-.92,1.4a5.75,5.75,0,0,0-.29.71,45,45,0,0,1,11.68,15.67c5.51,12.7,5.37,25.35-.53,37.86-1.36,2.89-2.12,6.25-5.27,8-.34.19-.49.77-.66,1.2-7.92,19.49-20.27,36-34.79,50.94-24.74,25.43-53.06,45.7-86.62,58-30.18,11-60.91,13.51-91.84,3.65-22.53-7.18-38.21-22.08-44.27-45.32-6.42-24.6,3.53-48.64,30.28-60.85,14.77-6.74,30.16-8.13,46.17-5.53,41.77,6.77,76.12-6.66,103.36-38.77.82-1,.9-2.58,1.27-3.91a34.75,34.75,0,0,1,1.18-4.55A44.47,44.47,0,0,1,437.22,263c.74,0,1.49,0,2.3,0a7.83,7.83,0,0,1,.74-1.85c4.06-5.49,5.43-11.87,5.56-18.44.12-6-.41-12.09-.87-18.12-.28-3.65.95-6.32,4.39-7.9Q460.51,211.56,471.76,206.59Zm-13.87,51.17c5.5-10.16,8.53-21.71,9.84-34-8.21,2.62-8.21,2.62-7.94,10.55a25.7,25.7,0,0,1,0,3.35C459.2,244.55,458.51,251.43,457.89,257.76ZM464,317.33c6.64-13.7-1.53-31.89-16.28-38.17-14.3-6.08-33.21.1-38.64,13.08a57.23,57.23,0,0,0,7.72,1c9.61,0,10.65,1,10.65,10.65a45,45,0,0,0,3.34,18,33.47,33.47,0,0,0,16.33-16.69c1.07-2.32,2.53-4.11,5.17-4.64,4.55-.9,7.69,1.73,8.72,6.78C461.67,310.76,463,314,464,317.33Zm-7.57,15.32c.41-1,.69-2.53.21-3.3a68.34,68.34,0,0,0-4.85-6.19c-6,6.39-12.92,11.22-21.5,13.4-4,1-6,.28-8.46-3a36.66,36.66,0,0,1-7.14-19.13c-.39-5-1.34-8.72-7.33-8.58a1.13,1.13,0,0,1-.53-.14c-1.61-.89-2.52-.17-3.73,1.06-6.92,7-13.37,14.71-21.12,20.68-28.57,22-60.9,29.51-96.42,23.27-15.39-2.7-29.9-.44-43.24,7.82-14.73,9.12-21,24.16-16.88,40.88,4.75,19.08,17.55,30.87,35.8,36.58,27.13,8.48,54.18,6.47,80.66-3,37.88-13.61,68.72-37.26,94.44-67.85A125.34,125.34,0,0,0,456.4,332.65Z"/>
  <path d="M467.74,223.75c-1.32,12.29-4.34,23.85-9.84,34,.62-6.33,1.31-13.21,1.95-20.11a25.7,25.7,0,0,0,0-3.35C459.53,226.37,459.52,226.37,467.74,223.75Z" fill="#063"/>
  <path d="M447.7,279.16c14.75,6.28,22.92,24.46,16.28,38.17-1-3.31-2.31-6.57-3-9.95-1-5-4.16-7.68-8.72-6.78-2.64.53-4.1,2.32-5.17,4.64a33.47,33.47,0,0,1-16.33,16.69,45,45,0,0,1-3.34-18c0-9.65-1-10.62-10.65-10.65a57.23,57.23,0,0,1-7.72-1C414.49,279.26,433.4,273.08,447.7,279.16Z" fill="#063"/>
  <path d="M456.61,329.35c.48.77.21,2.31-.21,3.3a125.34,125.34,0,0,1-20.11,32.42c-25.72,30.59-56.56,54.23-94.44,67.85-26.48,9.51-53.52,11.52-80.66,3-18.25-5.71-31.05-17.5-35.8-36.58-4.16-16.71,2.14-31.76,16.88-40.88,13.34-8.26,27.86-10.53,43.24-7.82,35.51,6.24,67.85-1.31,96.42-23.27,7.76-6,14.2-13.65,21.12-20.68,1.21-1.23,2.12-1.95,3.73-1.06a1.13,1.13,0,0,0,.53.14c6-.13,6.94,3.54,7.33,8.58a36.66,36.66,0,0,0,7.14,19.13c2.44,3.31,4.49,4,8.46,3,8.58-2.18,15.53-7,21.5-13.4A68.34,68.34,0,0,1,456.61,329.35Zm-36.72,43.5a6.31,6.31,0,0,0,1.44-7.24,6.61,6.61,0,0,0-5.69-4.36c-2.75-.35-4.74,1.12-6.61,3-14,13.78-29.32,25.93-46.52,35.55-24.06,13.46-49.44,21.08-77.37,17.27-11.39-1.55-22-4.8-30.39-13.27-3.16-3.18-7.38-3.27-10.2-.47s-2.61,7.16.66,10.41a54,54,0,0,0,17.58,11.7c11.65,4.8,23.91,6.2,40.16,6.47,3.87-.45,11.54-.85,19-2.33C361,421.82,392,400,419.89,372.85Z" fill="#82368c"/>
  <path d="M421.33,365.62a6.31,6.31,0,0,1-1.44,7.24C392,400,361,421.82,321.94,429.56c-7.46,1.48-15.13,1.87-19,2.33-16.24-.27-28.5-1.68-40.16-6.47a54,54,0,0,1-17.58-11.7c-3.27-3.25-3.53-7.57-.66-10.41s7-2.71,10.2.47c8.39,8.47,19,11.72,30.39,13.27,27.93,3.81,53.32-3.82,77.37-17.27C379.71,390.15,395,378,409,364.22c1.87-1.84,3.87-3.31,6.61-3A6.61,6.61,0,0,1,421.33,365.62Z"/>
  <path d="M354.21,210.72c34.68,40.19,15.06,101.78-36.34,114-39.1,9.33-79.24-18-84.71-57.77-2.61-19,1.64-36.32,13-51.72,12.64-17.1,20.47-36,22.61-57.21.5-4.9.39-9.87.45-14.8a29.1,29.1,0,0,1,9.64-21.84c.34-.32.68-.63,1-1,.06-.06.06-.16.21-.6-14.24-4.44-23.74-14-29.9-27.2a132.63,132.63,0,0,1-9.77-29c-1.16-5.59,3.09-9.88,8.49-8.27,13.91,4.15,27.19,9.7,38.6,19a36.22,36.22,0,0,1,11.12,15.85c1-1.17,1.74-2.05,2.48-3a63.24,63.24,0,0,1,21.16-16.63c4-2,8-.88,9.85,2.7s.38,7.5-3.64,9.54a50.87,50.87,0,0,0-25.56,28.71c-.32.85-.54,1.73-.86,2.76a29,29,0,0,1,16.18,8,27.77,27.77,0,0,1,8.6,19.15,109.64,109.64,0,0,0,19.78,59.61A119.05,119.05,0,0,0,354.21,210.72Zm-.29,66.48c8-20.19,4.87-39.54-9.12-56.11-19.33-22.91-30.44-48.77-31.63-78.8a14.89,14.89,0,0,0-10.25-13.66c-9.82-3.23-19.52,3.86-19.95,14.21-.37,9-.61,18.11-2.08,27-3.28,19.83-11.69,37.59-23.7,53.67a55.09,55.09,0,0,0-10.7,27.22c-3.75,32.65,22.55,62,55.63,62.16,2.22-.2,4.46-.31,6.67-.63C330.47,309.11,345.92,297.46,353.92,277.2ZM287.28,107.32c.08-7.13-.79-13.86-5.52-19.31-6.46-7.45-15.32-11.18-24.25-15.14C260.28,90,273.69,105.63,287.28,107.32Z"/>
  <path d="M344.8,221.09c14,16.57,17.08,35.92,9.12,56.11s-23.45,31.91-45.11,35c-2.21.32-4.45.43-6.67.63-33.08-.12-59.39-29.51-55.63-62.16a55.09,55.09,0,0,1,10.7-27.22c12-16.08,20.41-33.84,23.7-53.67,1.47-8.86,1.7-18,2.08-27,.43-10.36,10.13-17.45,19.95-14.21a14.89,14.89,0,0,1,10.25,13.66C314.36,172.33,325.47,198.18,344.8,221.09Zm-40.37,81.45c24.13-2.75,42.43-23.33,42.42-53.06-.06-6.45-3.9-16.84-11.47-25.94-4.58-5.51-9.18-11-13.37-16.85-5.56-7.72-9.6-16.15-10.32-25.87-.35-4.63-3.16-7.21-7.35-7-4,.24-6.41,3.22-6.28,7.71A51.32,51.32,0,0,0,303.39,202c5.29,11.25,13,20.78,21.16,30.06a34.14,34.14,0,0,1-14.61,55c-3.3,1.14-6.9,1.4-10.36,2.07a6.83,6.83,0,0,0,.4,13.52A20.5,20.5,0,0,0,304.43,302.54Z" fill="#95c11f"/>
  <path d="M346.85,249.49c0,29.72-18.29,50.31-42.42,53.06a20.5,20.5,0,0,1-4.46.07,6.83,6.83,0,0,1-.4-13.52c3.46-.67,7.06-.93,10.36-2.07a34.14,34.14,0,0,0,14.61-55c-8.11-9.28-15.87-18.81-21.16-30.06a51.32,51.32,0,0,1-5.32-20.39c-.13-4.49,2.32-7.47,6.28-7.71,4.19-.25,7,2.33,7.35,7,.73,9.72,4.77,18.15,10.32,25.87,4.19,5.81,8.79,11.34,13.37,16.85C343,232.64,346.8,243,346.85,249.49Z"/>
  <path d="M281.76,88c4.72,5.44,5.6,12.17,5.52,19.31-13.59-1.7-27-17.28-29.77-34.45C266.45,76.84,275.3,80.57,281.76,88Z" fill="#2fac66"/>
  <path d="M184,210.38c34.18,23,50.1,55.5,46.76,96.48-3.52,43.18-35.2,79.24-77.27,89.77-.81.2-1.61.43-1.89.51,1.94,4.22,4.13,8.3,5.69,12.61,1.13,3.12-.89,6.41-4,7.71a6.84,6.84,0,0,1-8.35-2.61,14.56,14.56,0,0,1-1.19-2.81,17.07,17.07,0,0,0-8.36-9.18c0,2.86,0,5.5,0,8.15,0,5.17-2.46,8.11-6.74,8.13s-6.89-2.93-6.92-8.26c0-2.58,0-5.16,0-8.37-4.24,2.85-7.18,5.8-8.57,10.12-1.34,4.16-4.9,6.19-8.61,5.11a6.7,6.7,0,0,1-4.42-9.13c1.48-3.95,3.69-7.62,5.62-11.51-2.61-.77-5.69-1.49-8.63-2.56-39.29-14.24-64-41.69-69.95-83.08-6.12-42.82,10.39-77,46.3-101.27,10.74-7.26,18.2-16.35,20.7-29.18.39-2,.52-4.06.72-6.1.4-4.07,2.86-6.61,6.87-6.63q26.85-.08,53.7,0a6.45,6.45,0,0,1,6.79,6.37C163.25,190.39,171,201.64,184,210.38Zm21.72,130.94c10.15-17.78,14-36.88,11-57.09-4.15-27.72-18.54-48.87-42.22-63.82A54.24,54.24,0,0,1,151,189.48c-.76-2.45-1.3-5-1.91-7.36H108.22c-.84,3.08-1.48,6-2.42,8.82-4.49,13.61-13.43,23.49-25.41,31.16C38.62,248.86,27,305,54.63,345.91c1.48,2.2,3.12,4.29,4.68,6.43a3.51,3.51,0,0,0-.31-2.25c-9.73-22.38-11.18-45.36-4.85-68.87a91.77,91.77,0,0,1,11.53-25.94c1.86-2.88,4.75-4.1,7.63-3.36s5.17,3,5.1,5.93a13.66,13.66,0,0,1-1.9,5.94c-16.92,30.53-16.85,61,.74,91.12,5.66,9.7,13.65,17.38,24.06,23.44-1.38-2.9-2.49-5.05-3.45-7.27-6.46-15-9.65-30.69-10.87-46.86-1.58-20.79-.25-41.35,5.24-61.54,1.24-4.55,4.76-6.83,8.71-5.73s5.76,4.87,4.57,9.4a168.26,168.26,0,0,0-1.37,79.74c2.46,11.25,6.1,22.11,13.22,31.43,1.48,1.93,3.29,3.6,5,5.4l.63-.4V379q0-55.26,0-110.51c0-6,2.39-9.27,6.83-9.28s6.89,3.33,6.89,9.26q0,56.24,0,112.47c0,.72.1,1.43.21,2.88,1.93-1.87,3.79-3.09,4.86-4.82,3.26-5.28,6.92-10.48,9.17-16.21,9.28-23.6,10.74-48.24,8.1-73.19-.85-8-2.84-15.93-4.44-23.86-.83-4.11,1.07-7.75,4.89-8.76,3.63-1,7.13,1.16,8.37,5.08a15,15,0,0,1,.53,1.89c1.55,8.79,3.57,17.54,4.53,26.4,2.55,23.51.77,46.74-6.28,69.4-1.92,6.17-4.63,12.09-7,18.13,4.36-2.79,8.82-5.7,12.46-9.42,21.24-21.75,27.35-48,22.19-77.32A79.34,79.34,0,0,0,183,262.72c-2.58-4.13-1.12-8.78,3.08-10.45,3.38-1.34,6.66,0,8.91,3.7,15.67,26.07,18.7,53.76,10.49,82.86-.3,1.07-.59,2.13-.9,3.2A1.43,1.43,0,0,0,205.69,341.32Z"/>
  <path d="M216.68,284.22c3,20.21-.84,39.31-11,57.09a1.43,1.43,0,0,1-1.11.72c.3-1.07.6-2.13.9-3.2C213.69,309.73,210.67,282,195,256c-2.25-3.74-5.53-5-8.91-3.7-4.21,1.67-5.66,6.32-3.08,10.45a79.34,79.34,0,0,1,11.26,28.4c5.16,29.34-1,55.58-22.19,77.32-3.64,3.72-8.1,6.63-12.46,9.42,2.34-6,5.05-12,7-18.13,7.05-22.66,8.83-45.89,6.28-69.4-1-8.86-3-17.61-4.53-26.4a15,15,0,0,0-.53-1.89c-1.24-3.92-4.74-6-8.37-5.08-3.81,1-5.71,4.64-4.89,8.76,1.59,7.93,3.59,15.84,4.44,23.86,2.64,24.95,1.18,49.58-8.1,73.19-2.25,5.72-5.91,10.92-9.17,16.21-1.06,1.72-2.93,2.94-4.86,4.82-.11-1.45-.21-2.17-.21-2.88q0-56.23,0-112.47c0-5.93-2.46-9.27-6.89-9.26s-6.83,3.23-6.83,9.28q0,55.26,0,110.51v3.56l-.63.4c-1.66-1.8-3.47-3.47-5-5.4-7.12-9.32-10.76-20.18-13.22-31.43a168.26,168.26,0,0,1,1.37-79.74c1.19-4.53-.65-8.32-4.57-9.4s-7.48,1.18-8.71,5.73c-5.5,20.19-6.82,40.75-5.24,61.54,1.23,16.17,4.41,31.91,10.87,46.86,1,2.22,2.07,4.36,3.45,7.27-10.41-6.05-18.39-13.73-24.06-23.44-17.59-30.15-17.65-60.59-.74-91.12a13.66,13.66,0,0,0,1.9-5.94c.07-2.89-2.31-5.22-5.1-5.93s-5.77.48-7.63,3.36a91.77,91.77,0,0,0-11.53,25.94c-6.33,23.51-4.87,46.48,4.85,68.87a3.51,3.51,0,0,1,.31,2.25c-1.57-2.14-3.2-4.23-4.68-6.43C27,305,38.62,248.86,80.39,222.1c12-7.67,20.92-17.55,25.41-31.16.93-2.82,1.58-5.74,2.42-8.82H149c.62,2.39,1.16,4.91,1.91,7.36a54.24,54.24,0,0,0,23.51,30.92C198.14,235.36,212.53,256.5,216.68,284.22Z" fill="#7b6a58"/>
</svg>
