<svg id="b6a845eb-aa94-4c77-a424-4a294c82c286" data-name="Capa 1" xmlns="http://www.w3.org/2000/svg" viewBox="0 0 508 510.04">
  <title>ICONES_GIS_Mapes_02</title>
  <g>
    <path d="M195.25,272.1c33.56,33.56,139.16,153.79,179.1,156.22,32.71,2,71-28.73,46.12-90.91S353,200.86,272.87,148.32s-132.8-75.67-156.65-63.6-59.44,27.93-16.44,81.43,95.46,106,95.46,106" fill="#bb8c54"/>
    <path d="M427.39,334.66C393.15,249,344,186,277,142.08c-87.53-57.42-138.16-77.14-164.12-64l-1.93,1C96.69,86.2,77.21,96,73,115.52c-3.35,15.46,3.51,33.56,21,55.3,42.76,53.2,95.47,106,96,106.56,6,6,14.25,14.7,24,25,62.82,66.37,126.93,131.33,159.89,133.34,1.18.08,2.34.11,3.51.11a58.42,58.42,0,0,0,47.11-23.81C438.55,392.61,439.58,365.12,427.39,334.66ZM255.1,159.48a8.67,8.67,0,0,1-1.52-1.16A15,15,0,0,0,255.1,159.48ZM412.41,403.32a43.49,43.49,0,0,1-37.61,17.55c-29.85-1.83-111-87.53-150-128.71-9.9-10.45-18.26-19.29-24.31-25.34-.52-.51-52.66-52.79-94.92-105.35-14.28-17.75-20.35-32.16-18-42.8,2.72-12.55,17.26-19.86,30.07-26.32l2-1c11.77-6,34.3-.87,67.29,15.17A97,97,0,0,0,159.23,116c-6.28,3.2-8.09,12-4.69,17.86,3.74,6.38,11.56,7.89,17.86,4.69a75,75,0,0,1,23.14-7.08c6.83-1,10.65-9.47,9.2-15.65q16.72,9.05,36.33,21.13c-12.27,6.31-24.18,18-36.78,20.35-16.5,3.09-9.52,28.27,6.94,25.18,9.21-1.73,17-6.35,24.51-11.77,3.34-2.41,6.59-4.95,10.06-7.16,2.06-1.3,4.58-2.17,6.53-3.52a2.82,2.82,0,0,1,2.76-.51c6.12,4.15,13.24,2.07,17.46-2.39a348.5,348.5,0,0,1,28.19,21.15,99.73,99.73,0,0,0-55.17,30.94c-11.27,12.43,7.14,30.94,18.46,18.46,12.85-14.18,29.48-23.31,48.7-25a13.1,13.1,0,0,0,9.39-5,352.79,352.79,0,0,1,25.42,27.91c-19.62-2.93-41,13.18-56.44,23.32-14,9.2-.9,31.82,13.18,22.54,9.69-6.38,32.36-26.08,43.88-17.5,7.12,5.3,14.1,1.49,17.16-4.75a415.63,415.63,0,0,1,24.83,40.69c-27.07-3.43-52.76-3.85-74.64,16.52C303.2,317.8,321.7,336.24,334,324.8c16.66-15.51,38.24-11.43,58.72-8.52a13.56,13.56,0,0,0,9.6-2.1q5.86,12.63,11.22,26C426.64,372.95,420.15,392.6,412.41,403.32Z"/>
  </g>
</svg>
