<svg id="95e9a922-94bf-4810-9f18-769f0a7879cf" data-name="Capa 1" xmlns="http://www.w3.org/2000/svg" viewBox="0 0 508 510.04">
  <title>ICONES_GIS_Mapes_02</title>
  <g>
    <path d="M352.62,318.35c21.71-12.59,51.38-9.63,73.8,8.11-16.67,5.64-32.42,11-48.16,16.3-6.8,2.3-13.54,4.78-20.42,6.74s-10.92,6.2-13.15,13C338,383.18,330.93,403.71,324,424.28c-.67,2-1.39,4-2.51,7.14-11.11-15.85-17.59-32.11-15.21-50.56a77.33,77.33,0,0,1,7.79-23.9c5.51-11.13,2.45-19.33-9.46-23.13-28.1-8.95-56.44-17.36-84.07-27.61-29.26-10.86-56.49-25.87-80.38-46.32-4.1-3.54-8-7.32-12.61-11.56A343.86,343.86,0,0,0,243.76,131.86c7.62,9.22,15.19,17.48,21.75,26.52,23.43,32.16,38.14,68.56,50.33,106.08,4.76,14.67,8.84,29.54,13.09,44.36C332.6,321.68,340.95,325.11,352.62,318.35Z" fill="#36a9e1"/>
    <path d="M243.76,131.86c7.62,9.22,15.19,17.48,21.75,26.52,23.43,32.16,38.14,68.56,50.33,106.08,4.76,14.67,8.84,29.54,13.09,44.36,2.44,8.53,6.94,12.91,13.1,12.91,3.12,0,6.66-1.12,10.58-3.39a58.8,58.8,0,0,1,29.59-7.7,71.75,71.75,0,0,1,44.21,15.81c-16.67,5.64-32.42,11-48.16,16.3-6.8,2.3-13.54,4.78-20.42,6.74s-10.92,6.2-13.15,13C338,383.18,330.93,403.71,324,424.28c-.67,2-1.39,4-2.51,7.14-11.11-15.85-17.59-32.11-15.21-50.56a77.33,77.33,0,0,1,7.79-23.9c5.51-11.13,2.45-19.33-9.46-23.13-28.1-8.95-56.44-17.36-84.07-27.61-29.26-10.85-56.49-25.87-80.38-46.32-4.1-3.54-8-7.32-12.61-11.56A343.86,343.86,0,0,0,243.76,131.86m0-11-.78,0a11,11,0,0,0-8.61,5.25c-28.74,47.13-65.56,84-112.58,112.83a11,11,0,0,0-1.69,17.49c1.57,1.44,3.05,2.82,4.49,4.16,2.84,2.65,5.52,5.16,8.37,7.62l0,0c23.58,20.17,51.74,36.41,83.71,48.27,21.6,8,43.85,15,65.37,21.73,6.3,2,12.81,4,19.19,6,3.17,1,4.25,2.11,4.38,2.41s.19,2.05-1.44,5.35a87.35,87.35,0,0,0-8.84,27.35c-2.52,19.54,2.92,38.06,17.11,58.31a11,11,0,0,0,19.39-2.67l1.07-3c.56-1.56,1-2.92,1.5-4.29q2.72-8.06,5.47-16.19c5.06-14.93,10.28-30.37,15.24-45.64,1.3-4,2.86-5.06,5.67-5.85,5.36-1.52,10.56-3.32,15.58-5.06,1.79-.62,3.58-1.24,5.38-1.85l30.44-10.3,17.73-6a11,11,0,0,0,3.3-19,82.82,82.82,0,0,0-51-18.18,70,70,0,0,0-35.11,9.18c-3.05,1.77-4.65,1.9-5.06,1.9h-.13c-.37-.28-1.45-1.65-2.39-4.93q-1.27-4.42-2.51-8.82c-3.35-11.78-6.81-24-10.69-35.92a521,521,0,0,0-21.4-56.23,301.25,301.25,0,0,0-30.5-52.94c-4.72-6.49-9.73-12.37-15-18.59-2.34-2.74-4.76-5.58-7.13-8.45a11,11,0,0,0-8.48-4Z"/>
    <path d="M228.85,118.64c.94.62,1.78,1.34,3.5,2.63C203.49,169.88,165.23,208.12,116,237.4c-4.65-8-9.55-15.43-13.52-23.36-18.91-37.88-24.36-78-18.86-119.73.42-3.16.8-5.34,4.85-5.81C138.73,82.46,185.94,90.52,228.85,118.64Zm-60.9,25.83a28.51,28.51,0,0,0-28.32-29.22c-16.55-.13-29.24,12.47-29.24,29a28.78,28.78,0,0,0,57.56.24Z" fill="#36a9e1"/>
    <path d="M119,86.61c38.92,0,75.74,9.68,109.85,32,.94.62,1.78,1.34,3.5,2.63C203.49,169.88,165.23,208.12,116,237.4c-4.65-8-9.55-15.43-13.52-23.36-18.91-37.88-24.36-78-18.86-119.73.42-3.16.8-5.34,4.85-5.81A256.31,256.31,0,0,1,119,86.61m20.11,86.19a28.77,28.77,0,0,0,.51-57.54h-.26a28.77,28.77,0,0,0-.67,57.54h.42M119,75.61h0a268.54,268.54,0,0,0-31.84,2c-6.49.76-9.95,4.11-11.7,6.8a19.36,19.36,0,0,0-2.77,8.48c-6,45.26.74,87.68,19.92,126.11,2.93,5.85,6.29,11.41,9.54,16.78,1.43,2.36,2.9,4.79,4.32,7.21a11,11,0,0,0,15.12,3.91c50.94-30.28,90.26-69.53,120.21-120a11,11,0,0,0-2.84-14.4l-1.48-1.14c-.87-.67-1.62-1.25-2.53-1.86l-.07,0a204.39,204.39,0,0,0-56.14-25.78A218.4,218.4,0,0,0,119,75.61Zm20.11,86.19h-.27a17.52,17.52,0,0,1-17.45-17.59c0-10.4,7.56-18,18-18h.17a17.35,17.35,0,0,1,12.34,5.18,18,18,0,0,1,5.07,12.92,17.57,17.57,0,0,1-17.84,17.45Z"/>
  </g>
</svg>
