<svg id="74689b7f-2381-4510-b4bc-9b2d82bd9ef2" data-name="Capa 1" xmlns="http://www.w3.org/2000/svg" viewBox="0 0 508 510.04">
  <title>ICONES_GIS_Mapes_02</title>
  <path d="M354.44,145.3c29.9,11.82,48.71,40.31,48.6,72.46q-.18,55.74-.11,111.51c0,7.29-.62,14.39-4.27,20.89-7.29,13-18.54,19.54-33.35,19.57q-81.06.12-162.1,0c-20,0-40,.08-59.94,0-22-.11-37.7-15.77-37.92-37.75-.07-6.52,0-13.06,0-19.84,3.15-.51,5.87-.93,8.57-1.4,11.59-2,19.67-11.37,19.85-22.83.18-11.67-7.36-21-19-23.44-3-.65-6-1.2-9.44-1.86,0-12.53-.05-24.78,0-37,0-5.52-1.54-12.4,1.12-16.16,2.51-3.55,9.63-3.92,14.76-5.54,64.37-20.31,128.83-40.35,193.08-61C328.47,138.27,341.49,140.19,354.44,145.3ZM382,330.59q.06-49.36,0-98.73c0-1.26-.19-2.51-.3-3.82H126.4c0,4.78.14,9.32,0,13.85-.12,2.75.85,4.1,3.32,5.64,5.08,3.17,10.41,6.49,14.27,11a44.19,44.19,0,0,1-13.77,68.76c-2.34,1.17-3.9,2.12-3.85,5.27.18,9.83,6.83,16.33,17.51,16.33q110,0,220.07,0C376,348.79,382,342.72,382,330.59Zm-196.79-124H380.8c-3.11-21-20.46-39.32-41.39-44.21a33,33,0,0,0-18.24.41c-44,14.1-88.11,27.9-132.18,41.79-1.36.42-2.71.86-4.08,1.31C185,206.12,185.1,206.36,185.18,206.59Z"/>
  <path d="M382,231.86q0,49.36,0,98.73c0,12.13-6,18.2-18.05,18.22q-110,.06-220.07,0c-10.68,0-17.34-6.49-17.51-16.33-.05-3.15,1.51-4.09,3.85-5.27A44.19,44.19,0,0,0,144,258.49c-3.86-4.46-9.2-7.78-14.27-11-2.47-1.54-3.44-2.89-3.32-5.64.18-4.54,0-9.07,0-13.85H381.67C381.78,229.35,382,230.6,382,231.86Zm-50.62,66.26a27.71,27.71,0,1,0-28-27.41A27.59,27.59,0,0,0,331.35,298.12Zm-34.8,12.13A28.38,28.38,0,1,0,268,338.32,28.48,28.48,0,0,0,296.55,310.24Zm-91-9.71a30.15,30.15,0,1,0-30.18-29.73A30.19,30.19,0,0,0,205.51,300.53Z" fill="#cbbba0"/>
  <path d="M380.8,206.59H185.18c-.08-.23-.18-.47-.27-.7,1.36-.45,2.71-.89,4.08-1.31,44.07-13.89,88.17-27.69,132.18-41.79a33,33,0,0,1,18.24-.41C360.34,167.27,377.69,185.6,380.8,206.59Z" fill="#683c11"/>
  <path d="M358.79,270.14a27.72,27.72,0,1,1-27.51-27.44A27.59,27.59,0,0,1,358.79,270.14Zm-21,.49a6.69,6.69,0,0,0-6.66-7,6.89,6.89,0,0,0-6.91,6.81,7,7,0,0,0,7,6.81A6.9,6.9,0,0,0,337.82,270.63Z"/>
  <path d="M268.48,281.56a28.38,28.38,0,1,1-28.68,28.15A28.48,28.48,0,0,1,268.48,281.56Zm7.2,28.52a7.44,7.44,0,0,0-7.49-7.39,7.06,7.06,0,0,0-7.24,7,7.41,7.41,0,0,0,7.1,7.75A7.72,7.72,0,0,0,275.67,310.08Z"/>
  <path d="M235.52,270a30.09,30.09,0,1,1-30.29-29.79A30.19,30.19,0,0,1,235.52,270Zm-30,9.45a9.06,9.06,0,1,0-9.26-8.76A9,9,0,0,0,205.53,279.47Z"/>
</svg>
