<svg id="8a292059-a39a-4c6f-b122-99256b9c713e" data-name="Capa 1" xmlns="http://www.w3.org/2000/svg" viewBox="0 0 508 510.04">
  <title>ICONES_GIS_Mapes_02</title>
  <rect x="170.26" y="47.07" width="163.36" height="420.03" rx="30.98" ry="30.98" transform="translate(255.57 -102.85) rotate(45)" fill="#ffde00"/>
  <g>
    <path d="M153.51,312.32c3.78,19.62-2.27,36.11-17.48,48.9-6.23,5.24-13.76,8-22.24,6.5C100,365.23,87.59,352.11,85,337c-.89-5.28-1.14-10.65-1.71-16-1-12,2.76-22.49,7.88-33.1,10.63-21.93,28.35-38.42,42.63-57.52a9.1,9.1,0,0,1,16.11,3.14c.68,2.35.27,5.16-.12,7.68-2.17,14.24-5.38,28.51-3,42.94C148.35,293.69,151.69,302.87,153.51,312.32Zm-27.5,32c7.32-8.54,10.6-18.73,7.37-29.5-4.31-14.3-8.13-28.54-7.76-43.62,0-.21-.29-.47-.68-1.07-8.67,9.66-16,19.77-20.82,31.57s-3.75,23.67-.17,35.08c1.38,4.42,6.73,8.15,11.1,10.91C119,350.17,123.2,347.57,126,344.28Z"/>
    <path d="M133.39,314.78c3.22,10.77-.06,21-7.37,29.5-2.81,3.3-7,5.9-11,3.38-4.37-2.76-9.72-6.48-11.1-10.91-3.57-11.41-4.6-23.4.17-35.08s12.15-21.91,20.82-31.57c.39.6.7.85.68,1.07C125.26,286.24,129.08,300.48,133.39,314.78Z" fill="#ffde00"/>
  </g>
  <path d="M111.68,410.44c.44,3.72,1.23,7.44,1.25,11.16,0,6.53,3.56,11,9.43,11.27,5.64.25,10.1-4.25,10.45-10.53,1.26-23-12.88-41.67-35.39-46.52a100.27,100.27,0,0,0-12.28-1.77c-6-.53-11.72,3.68-12.27,8.74-.59,5.39,3.68,10.07,10.05,11.05,3.18.49,6.35,1,9.51,1.59A28.4,28.4,0,0,1,96,396.68c-1.51,1.61-2.68,2.94-3.93,4.19q-32.53,32.56-65.1,65.08c-3.41,3.4-5.53,7-3.57,11.89,2.8,7,10.85,8.29,16.55,2.62q26.28-26.12,52.42-52.38c6-6,11.83-12,17.74-18Z"/>
  <g>
    <path d="M481.65,95c4.19,4.33,3.84,9.61-1.09,14.59-7.24,7.32-14.53,14.55-21.79,21.83q-21.34,21.31-42.65,42.63c-3.12,3.12-6.64,4.44-10.85,2.64-3.84-1.67-5.9-4.72-6.38-10.44.91-1.49,2.06-4.4,4.08-6.44q31.76-32,63.76-63.86C471.81,90.89,477.36,90.61,481.65,95Z"/>
    <path d="M471.79,36c4.35,4.44,3.76,9.78-1.65,15.29-.45.43-.87.85-1.32,1.3L423.68,97.31q-29.78,29.49-59.53,59c-3,2.95-6.64,5-10.27,2.66-2.91-1.86-4.73-5.39-7.41-8.64,2.39-3.55,3.76-6.48,5.92-8.65q29-29.28,58.21-58.35,22.94-22.94,45.91-45.89C462,32,467.4,31.55,471.79,36Z"/>
    <path d="M429,206.05c2.06,4.13.45,8.32-4.54,12.77-4.68,4.19-9.53,8.27-13.7,12.94a190,190,0,0,1-36.69,31.92c-9.51,6.36-19.46,11.1-31.22,11.51-6.87-.25-13.82,0-20.63-.83-15.27-2-29.59-16.28-30.62-30.1-.7-9.51,3.1-17.39,9.49-24.08,14.15-14.88,32-18.45,51.15-14.65,12.73,2.52,25.17,3.63,37.86,1.14,8.42-1.67,16.79-3.65,25.15-5.59C422.07,199.5,426.48,201,429,206.05Zm-40.67,22c-.21-.41-.41-.8-.6-1.18-15.25,2.27-29.88-1.18-44.59-4.23-11.62-2.41-24.43,3-30.33,12.05-2.62,4-2.6,7.63.37,11.39a23.43,23.43,0,0,0,17.08,9.35c18.84,1.94,33.53-6.46,47.29-17.6C381.3,234.79,384.74,231.32,388.33,228.06Z"/>
    <path d="M413.92,28.38c1.84,4.25.52,7.82-2.54,10.89q-32.51,32.57-65.08,65.08c-4.42,4.4-10.25,4.33-14.26.16s-3.9-9.41.56-13.89q32.48-32.63,65.14-65c1.84-1.82,4.58-2.74,6-3.57C409.15,22.56,412.24,24.5,413.92,28.38Z"/>
    <path d="M387.73,226.88c.19.39.39.78.6,1.18-3.59,3.26-7,6.73-10.79,9.78-13.76,11.14-28.45,19.54-47.29,17.6a23.43,23.43,0,0,1-17.08-9.35c-3-3.76-3-7.37-.37-11.39,5.9-9.06,18.71-14.46,30.33-12.05C357.84,225.69,372.48,229.15,387.73,226.88Z" fill="#ffde00"/>
    <path d="M355.85,288.74c1.84,4.29-.06,8.56-5.22,12.42s-10.79,7.68-15.56,12.17a192.39,192.39,0,0,1-40,28.49c-10.4,5.65-21.19,8.77-33.07,7.63-3.22-.17-6.44-.27-9.64-.5-10.63-.78-19.79-4.37-27.15-12.61-13.87-15.5-12.67-33.36,3.61-46.42,15.21-12.19,32.41-13.27,50.51-8.73,5,1.26,9.92,3.34,15,4.17,16.28,2.66,32.41.1,48.45-2.46C349.46,281.83,353.67,283.65,355.85,288.74Zm-44.38,18.12a8.08,8.08,0,0,0,1-1.55,51.55,51.55,0,0,0-6.93-1.11c-12.55-.21-24.53-3-36.36-7.1-11.6-4-22.14-1.18-31,7.08-5.28,4.93-5.18,8.64-1.16,14.61,4.89,7.3,12.17,8.83,20.22,9.92,18.14,2.46,32.21-6.46,46.3-15.6C306.32,311.27,308.85,309,311.47,306.86Z"/>
    <path d="M312.48,305.31a8.08,8.08,0,0,1-1,1.55c-2.62,2.12-5.14,4.4-8,6.25-14.09,9.14-28.16,18.07-46.3,15.6-8.05-1.09-15.33-2.62-20.22-9.92-4-6-4.11-9.68,1.16-14.61,8.89-8.27,19.42-11.12,31-7.08C281,301.23,293,304,305.55,304.2A51.55,51.55,0,0,1,312.48,305.31Z" fill="#ffde00"/>
    <path d="M301.28,78.06a9.81,9.81,0,0,1,5.41,10.69c-.27,1.67-.76,3.3-1.09,4.95-1.67,8.11-3.34,16.22-4.95,24.33-3,14.94,1.38,29.22,3.9,43.68,3.3,19.08-5.51,40-21.15,49.66-9.84,6.05-20.18,7.72-30.27.78-11.2-7.7-18.22-18.09-18.61-32.15-.14-4.91-.16-9.82-.23-14.73-.21-11.58,4.72-21.27,10.3-31,12-21,30.85-36.07,46.2-54.16A8.12,8.12,0,0,1,301.28,78.06ZM274,193.4c7.7-7.55,11.2-16.9,9.82-27.54-1.22-9.7-3.76-19.23-5-28.93-.76-6-.06-12.21,0-19.52-11.45,11.72-21.81,23.44-25.89,38.42-2.39,8.81-1.77,19-.21,28.12.76,4.52,6.25,8.81,10.5,12C266.78,198.62,271,196.31,274,193.4Z"/>
    <path d="M283.8,165.87c1.38,10.63-2.12,20-9.82,27.54-3,2.91-7.2,5.22-10.77,2.54-4.25-3.18-9.74-7.47-10.5-12-1.55-9.16-2.17-19.31.21-28.12,4.08-15,14.44-26.7,25.89-38.42,0,7.32-.74,13.51,0,19.52C280,146.64,282.57,156.16,283.8,165.87Z" fill="#ffde00"/>
    <path d="M279.1,364.18c1.94,4.35.06,8.79-5,12.54s-10.58,7.47-15.25,11.86A190.4,190.4,0,0,1,219,417.2c-10.36,5.63-21.09,9.14-33,8.25-5.49-.62-11-1-16.44-1.94-14.34-2.46-27.75-15.21-30.14-28.27-2.27-12.52,4.52-25.07,18.18-33.43,14.17-8.65,29.32-8.95,44.88-5.06,4.89,1.22,9.61,3.34,14.55,4.17,16.61,2.79,33,.25,49.42-2.37C272.62,357.55,276.95,359.37,279.1,364.18Zm-42.69,18c-.08-.39-.14-.78-.21-1.16-15.52,1.59-29.46-4.21-43.74-8.67-11.18-3.47-21.31-.58-29.79,7.32-5.43,5-5.34,8.93-1.22,15,4.72,7,11.66,8.52,19.39,9.64,17.21,2.54,31-5.22,44.55-13.84C229.25,388,232.74,385,236.41,382.21Z"/>
    <path d="M236.19,381c.08.39.14.78.21,1.16-3.67,2.77-7.16,5.8-11,8.27-13.56,8.62-27.34,16.38-44.55,13.84-7.72-1.13-14.67-2.68-19.39-9.64-4.11-6.05-4.21-10,1.22-15,8.48-7.9,18.61-10.79,29.79-7.32C206.74,376.84,220.67,382.64,236.19,381Z" fill="#ffde00"/>
    <path d="M229,235.82c4,19-1.53,35.22-15.6,48.34-6.35,5.92-14.15,9.28-23.13,8C175.77,290,163,276.4,160.54,260.37c-.82-5.28-1-10.67-1.51-16a58,58,0,0,1,4.87-26c10.69-24.72,30-43.18,46-64.06a7.89,7.89,0,0,1,10-2.5c4.08,1.88,6.6,5,6.27,9.74-.14,1.69-.47,3.34-.74,5-2.17,13.33-5,26.72-3,40.21C223.76,216.57,227,226.1,229,235.82Zm-26.82,32.27c6.44-7.88,9.74-17.19,7.2-27-3.92-15.25-9.26-30.16-8.23-46.42-10.94,10.4-18.94,22.39-23,36.36a46.74,46.74,0,0,0,1.4,29.83c1.79,4.58,6.95,8.44,11.45,11.18C195.15,274.55,199.36,271.55,202.22,268.09Z"/>
    <path d="M209.42,241.08c2.54,9.82-.76,19.13-7.2,27-2.85,3.45-7.06,6.46-11.22,3.94-4.5-2.74-9.66-6.6-11.45-11.18a46.74,46.74,0,0,1-1.4-29.83c4.09-14,12.09-26,23-36.36C200.16,210.92,205.5,225.83,209.42,241.08Z" fill="#ffde00"/>
  </g>
</svg>
