<svg id="c366f7e1-2256-4be4-b935-9fd07da5a3f3" data-name="Capa 1" xmlns="http://www.w3.org/2000/svg" viewBox="0 0 508 510.04">
  <title>ICONES_GIS_Mapes_02</title>
  <g>
    <g>
      <circle cx="167.51" cy="149.38" r="97.73" fill="#008d36"/>
      <path d="M167.51,66.14a83.24,83.24,0,1,1-83.24,83.24,83.34,83.34,0,0,1,83.24-83.24m0-14.49a97.73,97.73,0,1,0,97.73,97.73,97.73,97.73,0,0,0-97.73-97.73Z"/>
    </g>
    <g>
      <rect x="285.27" y="165.63" width="179.68" height="179.68" fill="#009fe3"/>
      <path d="M451.72,178.86V332.08H298.5V178.86H451.72m13.23-13.23H285.27V345.31H464.95V165.63Z"/>
    </g>
    <g>
      <polygon points="214.63 260.27 100.25 260.27 43.05 359.33 100.25 458.39 214.63 458.39 271.82 359.33 214.63 260.27" fill="#e30613"/>
      <path d="M206.27,274.76l48.83,84.57L206.27,443.9H108.61L59.78,359.33l48.83-84.57h97.65m8.37-14.49H100.25L43.05,359.33l57.19,99.06H214.63l57.19-99.06-57.19-99.06Z"/>
    </g>
  </g>
</svg>
