<svg id="46956bd0-ed4d-44a5-9b89-186100106ba9" data-name="Capa 1" xmlns="http://www.w3.org/2000/svg" viewBox="0 0 508 510.04">
  <title>ICONES_GIS_Mapes_02</title>
  <g>
    <path d="M461.55,79.44l-11.71,11.1-22.75-24c3.84-3.65,7.53-7.14,11.71-11.1Z" fill="#fff"/>
    <path d="M414.2,78.75c7.57,8,15,15.86,22.79,24-12,11.35-24,22.71-36.2,34.32-7.59-8-14.92-15.75-22.79-24Z" fill="#fff"/>
    <path d="M307.78,260c7.31,7.84,6.59,17.41-1.35,25-16,15.26-32,30.41-48,45.61-15.9,15-31.73,30.14-47.67,45.14-8.69,8.2-17.94,8.06-26.26-.63q-28.1-29.29-55.89-58.89c-7.84-8.35-7.39-17.88,1-25.86q47.78-45.46,95.71-90.75c8.29-7.84,17.55-7.92,25.41.22Q279.49,229.71,307.78,260Z" fill="#fff"/>
    <path d="M473.51,67.12c7.57,8.12,7.33,17.67-.8,25.39Q431.14,132,389.47,171.4c-2.57,2.43-3.65,4.37-2.59,8.29,7.2,26.71,1.37,50.85-18.47,69.85Q255.82,357.34,142.28,464.17c-11.53,10.94-26.2,10.31-37.26-1.31Q70.86,427,36.82,391C26,379.49,26.45,364.65,38,353.67q56.63-53.78,113.32-107.48,55.19-52.34,110.42-104.65c21.28-20,46.12-25.75,74-16.43,3.67,1.22,5.22-.39,7.33-2.37Q384,83.87,425,45c10.06-9.55,18.69-9.31,28.24.76C460,52.89,466.81,60,473.51,67.12ZM449.83,90.54l11.71-11.1-22.75-24c-4.18,4-7.88,7.45-11.71,11.1ZM437,102.79c-7.78-8.18-15.22-16-22.79-24L378,113.07c7.88,8.29,15.2,16,22.79,24C413,125.5,425,114.13,437,102.79Zm-65.75,62.87c5.84-5.2,11.39-10.69,17.26-16.28l-23.35-24.61c-6,5.71-11.82,11-17.37,16.53-4.16,4.12-8.51,4.53-13.57,1.86-15.49-8.22-31.16-7.53-46.41.27C273,151,263.42,164.6,251,175.15c27.32,28.84,54.1,57,80.91,85.32,10-9.53,20.69-18,29.3-28.18,13.18-15.59,16.18-33.61,7.43-52.71C366.15,174.13,366.68,169.76,371.25,165.66ZM306.43,285c7.94-7.57,8.65-17.14,1.35-25q-28.28-30.33-57.1-60.18c-7.86-8.14-17.12-8.06-25.41-.22q-47.94,45.3-95.71,90.75c-8.39,8-8.84,17.51-1,25.86q27.79,29.6,55.89,58.89c8.33,8.69,17.57,8.84,26.26.63,15.94-15,31.77-30.1,47.67-45.14C274.42,315.43,290.48,300.29,306.43,285ZM153.2,430.4c10.43-9.9,20.86-19.79,31.59-30-27.35-28.86-54.1-57.06-81.08-85.51C85,332.65,66.57,350,48.31,367.57c-4,3.8-2.75,8,.73,11.69q34.28,36.15,68.61,72.28c4.43,4.65,8.22,4.63,12.94.24C138.18,444.73,145.67,437.52,153.2,430.4Z"/>
    <path d="M388.51,149.38c-5.88,5.59-11.43,11.08-17.26,16.28-4.57,4.1-5.1,8.47-2.59,13.92,8.75,19.1,5.75,37.12-7.43,52.71-8.61,10.18-19.26,18.65-29.3,28.18C305.11,232.19,278.33,204,251,175.15c12.41-10.55,22-24.18,36.81-31.73,15.24-7.8,30.92-8.49,46.41-.27,5.06,2.67,9.41,2.27,13.57-1.86,5.55-5.53,11.33-10.82,17.37-16.53Z" fill="#be1622"/>
    <path d="M184.79,400.44c-10.73,10.16-21.16,20.06-31.59,30-7.53,7.12-15,14.33-22.61,21.39-4.71,4.39-8.51,4.41-12.94-.24Q83.24,415.48,49,379.26c-3.49-3.69-4.69-7.9-.73-11.69C66.57,350,85,332.65,103.71,314.94,130.69,343.39,157.44,371.59,184.79,400.44Z" fill="#be1622"/>
  </g>
</svg>
